<svg width="34" height="34" viewBox="0 0 34 34" fill="none" xmlns="http://www.w3.org/2000/svg" xmlns:xlink="http://www.w3.org/1999/xlink">
<path d="M13.561,26.964C16.468,26.964 19.149,26.024 21.342,24.458L29.593,32.709C29.976,33.092 30.481,33.283 31.021,33.283C32.152,33.283 32.953,32.413 32.953,31.299C32.953,30.777 32.779,30.272 32.396,29.906L24.197,21.69C25.92,19.427 26.947,16.625 26.947,13.578C26.947,6.215 20.924,0.192 13.561,0.192C6.215,0.192 0.175,6.197 0.175,13.578C0.175,20.941 6.198,26.964 13.561,26.964ZM13.561,24.075C7.817,24.075 3.064,19.323 3.064,13.578C3.064,7.834 7.817,3.082 13.561,3.082C19.306,3.082 24.058,7.834 24.058,13.578C24.058,19.323 19.306,24.075 13.561,24.075Z" fill="#FFFFFF" fill-opacity="0.6"/>
</svg>
