<svg width="36" height="22" viewBox="0 0 36 22" fill="none" xmlns="http://www.w3.org/2000/svg" xmlns:xlink="http://www.w3.org/1999/xlink">
<path d="M32.622,-0.952L30.525,-0.952C29.367,-0.952 28.428,-0.013 28.428,1.145L28.428,19.32C28.428,20.478 29.367,21.417 30.525,21.417L32.622,21.417C33.78,21.417 34.719,20.478 34.719,19.32L34.719,1.145C34.719,-0.013 33.78,-0.952 32.622,-0.952ZM20.739,3.942L22.836,3.942C23.994,3.942 24.933,4.88 24.933,6.039L24.933,19.32C24.933,20.478 23.994,21.417 22.836,21.417L20.739,21.417C19.58,21.417 18.641,20.478 18.641,19.32L18.641,6.039C18.641,4.88 19.58,3.942 20.739,3.942ZM13.049,8.835L10.952,8.835C9.794,8.835 8.855,9.774 8.855,10.932L8.855,19.32C8.855,20.478 9.794,21.417 10.952,21.417L13.049,21.417C14.207,21.417 15.146,20.478 15.146,19.32L15.146,10.932C15.146,9.774 14.207,8.835 13.049,8.835ZM3.263,13.029L1.166,13.029C0.008,13.029 -0.931,13.968 -0.931,15.126L-0.931,19.32C-0.931,20.478 0.008,21.417 1.166,21.417L3.263,21.417C4.421,21.417 5.36,20.478 5.36,19.32L5.36,15.126C5.36,13.968 4.421,13.029 3.263,13.029Z" clip-rule="evenodd" fill-rule="evenodd" fill="#FFFFFF"/>
</svg>
