<svg width="36" height="22" viewBox="0 0 36 22" fill="none" xmlns="http://www.w3.org/2000/svg" xmlns:xlink="http://www.w3.org/1999/xlink">
<path d="M33.69,-0.952L31.593,-0.952C30.435,-0.952 29.496,-0.013 29.496,1.145L29.496,19.32C29.496,20.478 30.435,21.417 31.593,21.417L33.69,21.417C34.848,21.417 35.787,20.478 35.787,19.32L35.787,1.145C35.787,-0.013 34.848,-0.952 33.69,-0.952ZM21.806,3.942L23.903,3.942C25.062,3.942 26,4.88 26,6.039L26,19.32C26,20.478 25.062,21.417 23.903,21.417L21.806,21.417C20.648,21.417 19.709,20.478 19.709,19.32L19.709,6.039C19.709,4.88 20.648,3.942 21.806,3.942ZM14.117,8.835L12.02,8.835C10.862,8.835 9.923,9.774 9.923,10.932L9.923,19.32C9.923,20.478 10.862,21.417 12.02,21.417L14.117,21.417C15.275,21.417 16.214,20.478 16.214,19.32L16.214,10.932C16.214,9.774 15.275,8.835 14.117,8.835ZM4.331,13.029L2.234,13.029C1.075,13.029 0.136,13.968 0.136,15.126L0.136,19.32C0.136,20.478 1.075,21.417 2.234,21.417L4.331,21.417C5.489,21.417 6.428,20.478 6.428,19.32L6.428,15.126C6.428,13.968 5.489,13.029 4.331,13.029Z" clip-rule="evenodd" fill-rule="evenodd" fill="#FFFFFF"/>
</svg>
