<svg width="36" height="22" viewBox="0 0 36 22" fill="none" xmlns="http://www.w3.org/2000/svg" xmlns:xlink="http://www.w3.org/1999/xlink">
<path d="M32.758,-0.952L30.661,-0.952C29.503,-0.952 28.564,-0.013 28.564,1.145L28.564,19.32C28.564,20.478 29.503,21.417 30.661,21.417L32.758,21.417C33.916,21.417 34.855,20.478 34.855,19.32L34.855,1.145C34.855,-0.013 33.916,-0.952 32.758,-0.952ZM20.875,3.942L22.972,3.942C24.13,3.942 25.069,4.88 25.069,6.039L25.069,19.32C25.069,20.478 24.13,21.417 22.972,21.417L20.875,21.417C19.716,21.417 18.777,20.478 18.777,19.32L18.777,6.039C18.777,4.88 19.716,3.942 20.875,3.942ZM13.185,8.835L11.088,8.835C9.93,8.835 8.991,9.774 8.991,10.932L8.991,19.32C8.991,20.478 9.93,21.417 11.088,21.417L13.185,21.417C14.343,21.417 15.282,20.478 15.282,19.32L15.282,10.932C15.282,9.774 14.343,8.835 13.185,8.835ZM3.399,13.029L1.302,13.029C0.143,13.029 -0.795,13.968 -0.795,15.126L-0.795,19.32C-0.795,20.478 0.143,21.417 1.302,21.417L3.399,21.417C4.557,21.417 5.496,20.478 5.496,19.32L5.496,15.126C5.496,13.968 4.557,13.029 3.399,13.029Z" clip-rule="evenodd" fill-rule="evenodd" fill="#FFFFFF"/>
</svg>
