<svg width="24" height="38" viewBox="0 0 24 38" fill="none" xmlns="http://www.w3.org/2000/svg" xmlns:xlink="http://www.w3.org/1999/xlink">
<path d="M11.476,24.447C14.94,24.447 17.273,21.854 17.273,18.146L17.273,6.5C17.273,2.775 14.94,0.199 11.476,0.199C7.994,0.199 5.662,2.775 5.662,6.5L5.662,18.146C5.662,21.854 7.994,24.447 11.476,24.447ZM-0.988,18.424C-0.988,25.248 3.521,30.035 10.153,30.592L10.153,34.648L3.695,34.648C2.964,34.648 2.372,35.24 2.372,35.971C2.372,36.702 2.964,37.277 3.695,37.277L19.24,37.277C19.971,37.277 20.563,36.702 20.563,35.971C20.563,35.24 19.971,34.648 19.24,34.648L12.782,34.648L12.782,30.592C19.431,30.035 23.922,25.248 23.922,18.424L23.922,14.891C23.922,14.16 23.348,13.585 22.617,13.585C21.886,13.585 21.294,14.16 21.294,14.891L21.294,18.32C21.294,24.256 17.429,28.19 11.476,28.19C5.505,28.19 1.641,24.256 1.641,18.32L1.641,14.891C1.641,14.16 1.066,13.585 0.318,13.585C-0.413,13.585 -0.988,14.16 -0.988,14.891L-0.988,18.424Z" fill="#FFFFFF" fill-opacity="0.6"/>
</svg>
