<svg width="32" height="24" viewBox="0 0 32 24" fill="none" xmlns="http://www.w3.org/2000/svg" xmlns:xlink="http://www.w3.org/1999/xlink">
<path d="M15.412,5.12C20.059,5.12 24.528,6.905 27.896,10.107C28.15,10.354 28.555,10.351 28.805,10.1L31.229,7.653C31.355,7.526 31.426,7.354 31.425,7.174C31.424,6.995 31.351,6.823 31.223,6.697C22.384,-1.774 8.439,-1.774 -0.401,6.697C-0.529,6.823 -0.601,6.995 -0.603,7.174C-0.604,7.354 -0.533,7.526 -0.407,7.653L2.018,10.1C2.268,10.352 2.673,10.355 2.927,10.107C6.295,6.905 10.765,5.119 15.412,5.12ZM15.412,13.079C17.965,13.079 20.427,14.028 22.32,15.742C22.576,15.985 22.979,15.98 23.229,15.73L25.65,13.283C25.778,13.155 25.848,12.981 25.846,12.8C25.845,12.619 25.77,12.447 25.64,12.321C19.877,6.96 10.952,6.96 5.189,12.321C5.059,12.447 4.984,12.619 4.983,12.8C4.981,12.981 5.052,13.155 5.18,13.283L7.6,15.73C7.85,15.98 8.253,15.985 8.509,15.742C10.4,14.029 12.861,13.08 15.412,13.079ZM20.263,18.435C20.266,18.616 20.195,18.791 20.065,18.918L15.877,23.145C15.754,23.27 15.587,23.34 15.412,23.34C15.237,23.34 15.07,23.27 14.947,23.145L10.758,18.918C10.629,18.791 10.557,18.616 10.561,18.435C10.565,18.253 10.644,18.082 10.778,17.96C13.453,15.697 17.371,15.697 20.046,17.96C20.18,18.082 20.259,18.254 20.263,18.435Z" clip-rule="evenodd" fill-rule="evenodd" fill="#FFFFFF"/>
</svg>
