<svg width="34" height="24" viewBox="0 0 34 24" fill="none" xmlns="http://www.w3.org/2000/svg" xmlns:xlink="http://www.w3.org/1999/xlink">
<path d="M16.344,5.12C20.991,5.12 25.46,6.905 28.828,10.107C29.081,10.354 29.487,10.351 29.737,10.1L32.161,7.653C32.287,7.526 32.358,7.354 32.357,7.174C32.356,6.995 32.283,6.823 32.155,6.697C23.316,-1.774 9.37,-1.774 0.531,6.697C0.403,6.823 0.33,6.995 0.329,7.174C0.328,7.354 0.398,7.526 0.525,7.653L2.95,10.1C3.199,10.352 3.605,10.355 3.858,10.107C7.227,6.905 11.696,5.119 16.344,5.12ZM16.344,13.079C18.897,13.079 21.359,14.028 23.252,15.742C23.508,15.985 23.911,15.98 24.16,15.73L26.582,13.283C26.709,13.155 26.78,12.981 26.778,12.8C26.776,12.619 26.702,12.447 26.572,12.321C20.809,6.96 11.884,6.96 6.12,12.321C5.99,12.447 5.916,12.619 5.914,12.8C5.913,12.981 5.984,13.155 6.111,13.283L8.532,15.73C8.782,15.98 9.185,15.985 9.441,15.742C11.332,14.029 13.792,13.08 16.344,13.079ZM21.194,18.435C21.198,18.616 21.127,18.791 20.997,18.918L16.809,23.145C16.686,23.27 16.518,23.34 16.344,23.34C16.169,23.34 16.002,23.27 15.879,23.145L11.69,18.918C11.56,18.791 11.489,18.616 11.493,18.435C11.497,18.253 11.575,18.082 11.71,17.96C14.385,15.697 18.303,15.697 20.978,17.96C21.112,18.082 21.191,18.254 21.194,18.435Z" clip-rule="evenodd" fill-rule="evenodd" fill="#FFFFFF"/>
</svg>
